<svg width="1828" height="563" viewBox="0 0 1828 563" fill="none" xmlns="http://www.w3.org/2000/svg">
<path d="M360.6 281.6H281.6V360.7C303.4 360.7 322 353 337.5 337.5C352.9 322.1 360.6 303.4 360.6 281.6Z" fill="#FF4389"/>
<path d="M281.6 141V202.5C303.4 202.5 322 210.2 337.5 225.7C352.9 241.1 360.6 259.8 360.6 281.6H422.1C422.1 242.8 408.4 209.7 380.9 182.2C353.5 154.8 320.4 141 281.6 141ZM202.5 281.6H141.1C141.1 320.4 154.8 353.5 182.2 381C209.7 408.5 242.8 422.2 281.6 422.2V360.7H281.5C259.7 360.7 241 353 225.6 337.5C210.2 322.1 202.5 303.4 202.5 281.6ZM992.9 233.5H972.8V330.3H992.9V233.5ZM995 203.3C995 199.8 993.7 196.9 991.2 194.5C988.9 192.3 986.1 191.1 982.9 191.1C979.7 191.1 976.9 192.2 974.5 194.5C972 196.9 970.7 199.8 970.7 203.3C970.7 206.7 971.9 209.6 974.5 211.9C976.9 214.2 979.7 215.4 982.9 215.4C986.1 215.4 988.9 214.2 991.2 211.9C993.7 209.6 995 206.7 995 203.3ZM1118.9 281.8C1118.9 267.5 1114.4 255.5 1105.3 245.7C1096.4 236.2 1085.8 231.5 1073.5 231.5C1063.8 231.5 1055.3 234.2 1048.1 239.5C1044.8 242 1042.2 244.7 1040.2 247.5V233.5H1020V372.7H1040.2V316.3C1042.2 319.2 1044.8 321.8 1048.1 324.3C1055.4 329.6 1063.9 332.3 1073.5 332.3C1085.8 332.3 1096.4 327.6 1105.3 318.1C1114.4 308.3 1118.9 296.3 1118.9 281.8ZM1090.2 259.4C1095.9 265.4 1098.7 272.8 1098.7 281.8C1098.7 290.8 1095.9 298.4 1090.2 304.4C1084.6 310.3 1077.7 313.2 1069.5 313.2C1061.3 313.2 1054.4 310.3 1048.9 304.4C1043.2 298.4 1040.3 290.9 1040.3 281.8C1040.3 272.8 1043.2 265.3 1048.9 259.4C1054.5 253.5 1061.3 250.6 1069.5 250.6C1077.7 250.6 1084.5 253.5 1090.2 259.4ZM1193.4 231.5H1188.3C1180.2 231.5 1173 234 1166.5 239.1C1164.2 240.9 1161.7 243.4 1159.1 246.6V233.5H1138.9V330.3H1159.1V280.8C1159.1 272.4 1161.7 265.4 1166.9 259.8C1172 254.3 1178.1 251.6 1185.2 251.6L1193.3 252.7V231.5H1193.4ZM663.5 281.8C663.5 267.7 658.6 255.8 648.9 246.1C639.2 236.3 627.3 231.5 613.1 231.5C599 231.6 587.1 236.4 577.2 246.1C567.5 255.8 562.6 267.7 562.6 281.8C562.6 296 567.5 307.9 577.2 317.7C587 327.4 599 332.2 613.1 332.2C627.2 332.2 639.1 327.3 648.9 317.7C658.7 308 663.5 296 663.5 281.8ZM613.2 250.6C621.9 250.6 629 253.5 634.7 259.4C640.5 265.3 643.4 272.8 643.4 281.8C643.4 290.9 640.5 298.5 634.7 304.4C629 310.3 621.8 313.2 613.2 313.2C604.6 313.2 597.3 310.3 591.6 304.4C585.8 298.5 583 291 583 281.8C583 272.8 585.9 265.3 591.6 259.4C597.3 253.5 604.5 250.6 613.2 250.6ZM830.8 272.8C830.8 260.5 827.3 250.5 820.3 242.7C813.6 235.2 805.3 231.5 795.5 231.5C785.5 231.5 776.9 234.2 769.7 239.5C766.4 242.2 763.9 244.9 762.2 247.5C760.3 244.7 757.9 242 754.9 239.5C748.5 234.1 740.8 231.5 731.9 231.5C723.6 231.5 716.3 234.2 710.1 239.5C707.3 242.1 705.1 244.8 703.6 247.5V233.5H683.4V330.3H703.6V276.8C703.6 268.9 705.8 262.5 710.3 257.7C714.6 253 720.1 250.6 726.8 250.6C732.6 250.6 737.4 252.5 741 256.3C744.9 260.4 746.8 265.8 746.8 272.8V330.3H767V276.8C767 268.9 769.2 262.5 773.7 257.7C778 253 783.6 250.6 790.3 250.6C796.1 250.6 800.9 252.5 804.5 256.3C808.4 260.4 810.4 265.8 810.4 272.8V330.3H830.5V272.8H830.8ZM877.1 233.5H856.9V330.3H877.1V278C877.1 269.9 879.6 263.3 884.6 258.2C889.5 253.1 895.7 250.6 903.3 250.6C910 250.6 915.3 252.7 919.4 256.8C923.5 261 925.6 266.7 925.6 273.9V330.3H945.6V273.9C945.6 260.9 942 250.5 934.8 242.7C927.8 235.2 918.6 231.4 907.3 231.4C898.8 231.4 891.2 234.1 884.5 239.4C881.6 241.8 879.1 244.5 877 247.4V233.5H877.1ZM1661.9 233.5V201.2H1643.7V222.4C1643.7 229.8 1640.7 233.5 1634.6 233.5H1623.4V252.7H1641.6V300C1641.6 321.5 1651.7 332.2 1671.8 332.2C1676 332.2 1679.7 331.7 1682.7 330.9L1686.9 329.3V310.2L1683.7 311.8C1681.1 312.8 1678.5 313.3 1675.8 313.3C1666.4 313.3 1661.8 308.2 1661.8 298.1V252.8H1683.9V233.5H1661.9ZM1324.8 239.9C1318.5 245.2 1315.3 251.8 1315.3 259.7C1315.3 272.8 1323.9 282.2 1341 287.8C1345.3 289.2 1351.2 291.1 1358.8 293.5C1364.1 295.8 1366.8 298.7 1366.8 302C1366.8 305.3 1365.4 308.2 1362.5 310.5C1359.3 312.9 1355.1 314.2 1349.7 314.2C1343.7 314.2 1337.5 312.1 1331.3 307.8C1328.8 306 1326.5 303.8 1324.4 301.1L1311.3 314.2C1313.9 317.6 1317.2 320.7 1321.1 323.2C1329.5 329.2 1339 332.2 1349.7 332.2C1361 332.2 1370.1 329.2 1377.1 323.2C1383.7 317.5 1386.9 310.4 1386.9 302C1386.9 289.1 1378.3 279.8 1361.2 274C1352.7 271.5 1346.8 269.6 1343.6 268.3C1338.2 266 1335.5 263.1 1335.5 259.6C1335.5 256.9 1336.7 254.6 1339.2 252.7C1342 250.6 1345.8 249.6 1350.6 249.6C1356.2 249.6 1361.4 250.9 1366.1 253.6L1371.8 257.6L1385 244.5C1382.6 241.9 1379.8 239.7 1376.5 238C1368.7 233.5 1360.1 231.3 1350.7 231.3C1339.9 231.5 1331.3 234.3 1324.8 239.9ZM1300.2 278.9C1300.2 265.2 1295.8 253.8 1286.9 244.9C1278 235.9 1266.6 231.5 1252.9 231.5C1239.2 231.6 1227.6 236.4 1218 246.1C1208.3 255.9 1203.5 267.8 1203.5 281.8C1203.5 296 1208.4 307.9 1218.1 317.7C1227.9 327.4 1239.8 332.2 1253.9 332.2C1265.5 332.2 1275.9 329.2 1285.1 323.2C1289.3 320.5 1292.7 317.5 1295.2 314.2L1283.1 300.1C1280.9 302.6 1278.3 304.8 1275.4 306.7C1269 311.1 1262.1 313.2 1254.8 313.2C1247 313.2 1240.2 310.8 1234.4 306C1229 301.5 1225.7 295.8 1224.6 289H1299.2L1300.2 278.9ZM1252.8 249.6C1266.9 249.6 1275.6 257 1279 271.7H1224.5C1229.1 257 1238.5 249.6 1252.8 249.6ZM1430.9 306C1425.5 301.5 1422.2 295.8 1421.1 289H1495.7L1496.7 279C1496.7 265.3 1492.3 253.9 1483.4 245C1474.5 236 1463.1 231.6 1449.4 231.6C1435.8 231.7 1424.1 236.5 1414.5 246.2C1404.8 256 1400 267.9 1400 281.9C1400 296.1 1404.9 308 1414.6 317.8C1424.4 327.5 1436.3 332.3 1450.4 332.3C1462 332.3 1472.4 329.3 1481.6 323.3C1485.8 320.6 1489.2 317.6 1491.7 314.3L1479.6 300.2C1477.4 302.7 1474.9 304.9 1471.9 306.8C1465.5 311.2 1458.6 313.3 1451.3 313.3C1443.4 313.2 1436.6 310.8 1430.9 306ZM1449.3 249.6C1463.4 249.6 1472.1 257 1475.5 271.7H1421C1425.6 257 1435 249.6 1449.3 249.6ZM1536.9 233.5H1516.7V330.3H1536.9V278C1536.9 269.9 1539.4 263.3 1544.4 258.2C1549.3 253.1 1555.5 250.6 1563.1 250.6C1569.8 250.6 1575.1 252.7 1579.2 256.8C1583.3 261 1585.4 266.7 1585.4 273.9V330.3H1605.5V273.9C1605.5 260.9 1601.9 250.5 1594.7 242.7C1587.6 235.2 1578.5 231.4 1567.2 231.4C1558.7 231.4 1551.1 234.1 1544.4 239.4C1541.4 241.8 1538.9 244.5 1536.9 247.4V233.5Z" fill="white"/>
</svg>
